<?xml version="1.0" encoding="UTF-8" standalone="no"?>
<!DOCTYPE svg PUBLIC "-//W3C//DTD SVG 1.1//EN"
 "http://www.w3.org/Graphics/SVG/1.1/DTD/svg11.dtd">
<!-- Generated by graphviz version 14.1.5 (0)
 -->
<!-- Title: CFG Pages: 1 -->
<svg width="724pt" height="477pt"
 viewBox="0.00 0.00 724.00 477.00" xmlns="http://www.w3.org/2000/svg" xmlns:xlink="http://www.w3.org/1999/xlink">
<g id="graph0" class="graph" transform="scale(1 1) rotate(0) translate(4 472.5)">
<title>CFG</title>
<polygon fill="white" stroke="none" points="-4,4 -4,-472.5 719.5,-472.5 719.5,4 -4,4"/>
<text xml:space="preserve" text-anchor="middle" x="357.75" y="-451.2" font-family="Times,serif" font-size="14.00">gcd1</text>
<!-- gcd1 -->
<g id="node1" class="node">
<title>gcd1</title>
<polygon fill="none" stroke="black" points="611.5,-444 501,-444 501,-394 611.5,-394 611.5,-444"/>
<text xml:space="preserve" text-anchor="start" x="509" y="-430.5" font-family="monospace" font-size="10.00">gcd1:</text>
<text xml:space="preserve" text-anchor="start" x="509" y="-420" font-family="monospace" font-size="10.00">movq	%rdi, %rax</text>
<text xml:space="preserve" text-anchor="start" x="509" y="-409.5" font-family="monospace" font-size="10.00">testq	%rsi, %rsi</text>
<text xml:space="preserve" text-anchor="start" x="509" y="-399" font-family="monospace" font-size="10.00">je	.LBB5_6</text>
</g>
<!-- __bb_synth_1 -->
<g id="node2" class="node">
<title>__bb_synth_1</title>
<polygon fill="none" stroke="black" points="501.12,-347.5 301.38,-347.5 301.38,-276.5 501.12,-276.5 501.12,-347.5"/>
<text xml:space="preserve" text-anchor="start" x="309.38" y="-334" font-family="monospace" font-size="10.00">movq	%rsi, %rcx</text>
<text xml:space="preserve" text-anchor="start" x="309.38" y="-323.5" font-family="monospace" font-size="10.00">notq	%rcx</text>
<text xml:space="preserve" text-anchor="start" x="309.38" y="-313" font-family="monospace" font-size="10.00">movabsq	$&#45;9223372036854775808, %rdx</text>
<text xml:space="preserve" text-anchor="start" x="309.38" y="-302.5" font-family="monospace" font-size="10.00">xorq	%rax, %rdx</text>
<text xml:space="preserve" text-anchor="start" x="309.38" y="-292" font-family="monospace" font-size="10.00">orq	%rcx, %rdx</text>
<text xml:space="preserve" text-anchor="start" x="309.38" y="-281.5" font-family="monospace" font-size="10.00">je	.LBB5_4</text>
</g>
<!-- gcd1&#45;&gt;__bb_synth_1 -->
<g id="edge2" class="edge">
<title>gcd1&#45;&gt;__bb_synth_1</title>
<path fill="none" stroke="black" d="M520.3,-393.65C503.08,-381.98 481.99,-367.69 462.36,-354.4"/>
<polygon fill="black" stroke="black" points="464.36,-351.52 454.12,-348.81 460.43,-357.32 464.36,-351.52"/>
<text xml:space="preserve" text-anchor="middle" x="495.26" y="-366.5" font-family="monospace" font-size="10.00">F</text>
</g>
<!-- .LBB5_6 -->
<g id="node5" class="node">
<title>.LBB5_6</title>
<polygon fill="none" stroke="black" points="411.25,-36 353.25,-36 353.25,0 411.25,0 411.25,-36"/>
<text xml:space="preserve" text-anchor="start" x="361.25" y="-19" font-family="monospace" font-size="10.00">.LBB5_6:</text>
<text xml:space="preserve" text-anchor="start" x="361.25" y="-8.5" font-family="monospace" font-size="10.00">retq</text>
</g>
<!-- gcd1&#45;&gt;.LBB5_6 -->
<g id="edge1" class="edge">
<title>gcd1&#45;&gt;.LBB5_6</title>
<path fill="none" stroke="black" d="M611.85,-404.45C655.96,-389.98 710.25,-362.19 710.25,-313 710.25,-313 710.25,-313 710.25,-102.25 710.25,-43.62 510.9,-25.81 423.03,-20.81"/>
<polygon fill="black" stroke="black" points="423.33,-17.32 413.16,-20.28 422.96,-24.31 423.33,-17.32"/>
<text xml:space="preserve" text-anchor="middle" x="712.88" y="-200.75" font-family="monospace" font-size="10.00">T</text>
</g>
<!-- __bb_synth_2 -->
<g id="node3" class="node">
<title>__bb_synth_2</title>
<polygon fill="none" stroke="black" points="110.5,-230 0,-230 0,-180 110.5,-180 110.5,-230"/>
<text xml:space="preserve" text-anchor="start" x="8" y="-216.5" font-family="monospace" font-size="10.00">movq	%rax, %rcx</text>
<text xml:space="preserve" text-anchor="start" x="8" y="-206" font-family="monospace" font-size="10.00">orq	%rsi, %rcx</text>
<text xml:space="preserve" text-anchor="start" x="8" y="-195.5" font-family="monospace" font-size="10.00">shrq	$32, %rcx</text>
<text xml:space="preserve" text-anchor="start" x="8" y="-185" font-family="monospace" font-size="10.00">je	.LBB5_3</text>
</g>
<!-- __bb_synth_1&#45;&gt;__bb_synth_2 -->
<g id="edge4" class="edge">
<title>__bb_synth_1&#45;&gt;__bb_synth_2</title>
<path fill="none" stroke="black" d="M301.15,-284.32C249.84,-270.16 186.22,-251.84 121.48,-230.65"/>
<polygon fill="black" stroke="black" points="122.69,-227.36 112.1,-227.56 120.5,-234.01 122.69,-227.36"/>
<text xml:space="preserve" text-anchor="middle" x="206.53" y="-249" font-family="monospace" font-size="10.00">F</text>
</g>
<!-- .LBB5_4 -->
<g id="node7" class="node">
<title>.LBB5_4</title>
<polygon fill="none" stroke="black" points="674.38,-230 128.12,-230 128.12,-180 674.38,-180 674.38,-230"/>
<text xml:space="preserve" text-anchor="start" x="136.12" y="-216.5" font-family="monospace" font-size="10.00">.LBB5_4:</text>
<text xml:space="preserve" text-anchor="start" x="136.12" y="-206" font-family="monospace" font-size="10.00">pushq	%rax</text>
<text xml:space="preserve" text-anchor="start" x="136.12" y="-195.5" font-family="monospace" font-size="10.00">leaq	.Lanon.e495569d849372e26bf80ec87543d5aa.1(%rip), %rdi</text>
<text xml:space="preserve" text-anchor="start" x="136.12" y="-185" font-family="monospace" font-size="10.00">callq	*_ZN4core9panicking11panic_const24panic_const_rem_overflow17h06bd4d0d47e316feE@GOTPCREL(%rip)</text>
</g>
<!-- __bb_synth_1&#45;&gt;.LBB5_4 -->
<g id="edge3" class="edge">
<title>__bb_synth_1&#45;&gt;.LBB5_4</title>
<path fill="none" stroke="black" d="M401.25,-276.04C401.25,-265 401.25,-252.79 401.25,-241.7"/>
<polygon fill="black" stroke="black" points="404.75,-241.72 401.25,-231.72 397.75,-241.72 404.75,-241.72"/>
<text xml:space="preserve" text-anchor="middle" x="403.88" y="-249" font-family="monospace" font-size="10.00">T</text>
</g>
<!-- __bb_synth_3 -->
<g id="node4" class="node">
<title>__bb_synth_3</title>
<polygon fill="none" stroke="black" points="110.5,-123 0,-123 0,-83.5 110.5,-83.5 110.5,-123"/>
<text xml:space="preserve" text-anchor="start" x="8" y="-109.5" font-family="monospace" font-size="10.00">cqto</text>
<text xml:space="preserve" text-anchor="start" x="8" y="-99" font-family="monospace" font-size="10.00">idivq	%rsi</text>
<text xml:space="preserve" text-anchor="start" x="8" y="-88.5" font-family="monospace" font-size="10.00">movq	%rdx, %rax</text>
</g>
<!-- __bb_synth_2&#45;&gt;__bb_synth_3 -->
<g id="edge6" class="edge">
<title>__bb_synth_2&#45;&gt;__bb_synth_3</title>
<path fill="none" stroke="black" d="M55.25,-179.6C55.25,-166.08 55.25,-149.15 55.25,-134.76"/>
<polygon fill="black" stroke="black" points="58.75,-134.92 55.25,-124.92 51.75,-134.92 58.75,-134.92"/>
<text xml:space="preserve" text-anchor="middle" x="57.88" y="-152.5" font-family="monospace" font-size="10.00">F</text>
</g>
<!-- .LBB5_3 -->
<g id="node6" class="node">
<title>.LBB5_3</title>
<polygon fill="none" stroke="black" points="239.5,-133.5 129,-133.5 129,-73 239.5,-73 239.5,-133.5"/>
<text xml:space="preserve" text-anchor="start" x="137" y="-120" font-family="monospace" font-size="10.00">.LBB5_3:</text>
<text xml:space="preserve" text-anchor="start" x="137" y="-109.5" font-family="monospace" font-size="10.00">xorl	%edx, %edx</text>
<text xml:space="preserve" text-anchor="start" x="137" y="-99" font-family="monospace" font-size="10.00">divl	%esi</text>
<text xml:space="preserve" text-anchor="start" x="137" y="-88.5" font-family="monospace" font-size="10.00">movl	%edx, %eax</text>
<text xml:space="preserve" text-anchor="start" x="137" y="-78" font-family="monospace" font-size="10.00">retq</text>
</g>
<!-- __bb_synth_2&#45;&gt;.LBB5_3 -->
<g id="edge5" class="edge">
<title>__bb_synth_2&#45;&gt;.LBB5_3</title>
<path fill="none" stroke="black" d="M86.81,-179.6C101.91,-167.92 120.31,-153.69 137.04,-140.76"/>
<polygon fill="black" stroke="black" points="139.16,-143.54 144.93,-134.66 134.87,-138.01 139.16,-143.54"/>
<text xml:space="preserve" text-anchor="middle" x="122.38" y="-152.5" font-family="monospace" font-size="10.00">T</text>
</g>
<!-- __bb_synth_3&#45;&gt;.LBB5_6 -->
<g id="edge7" class="edge">
<title>__bb_synth_3&#45;&gt;.LBB5_6</title>
<path fill="none" stroke="black" d="M94.23,-83.04C102.68,-79.36 111.66,-75.78 120.25,-73 196.86,-48.2 289.88,-32.22 341.94,-24.49"/>
<polygon fill="black" stroke="black" points="342.13,-28 351.53,-23.1 341.13,-21.08 342.13,-28"/>
</g>
</g>
</svg>
